<svg id="Layer_1" data-name="Layer 1" xmlns="http://www.w3.org/2000/svg" viewBox="0 0 512 512">
  <defs>
    <style>
      .cls-1 {
        fill: #fff;
      }

      .cls-2 {
        fill: #030304;
      }
    </style>
  </defs>
  <title>calendar</title>
  <g>
    <polygon class="cls-1" points="497.63 10.78 14.37 10.78 14.37 501.22 359.3 501.22 497.63 362.9 497.63 10.78"/>
    <g>
      <path class="cls-2" d="M228.59,286.16c10.93-9.53,16.46-22.5,16.46-38.65,0-40.28-36.47-54.57-67.7-54.57-24.5,0-47.11,10.34-63.68,29.11a4.65,4.65,0,0,0,.2,6.37l24.94,25a4.77,4.77,0,0,0,3.56,1.35,4.64,4.64,0,0,0,3.39-1.76c8.81-11.18,18.27-15.74,32.63-15.74,11.38,0,19,5.58,19,13.88,0,3.88,0,15.68-27.77,15.68H157.56a4.66,4.66,0,0,0-4.66,4.65V307a4.66,4.66,0,0,0,4.66,4.66h14.9c19.62,0,29.57,5.53,29.57,16.44,0,11.74-12.21,15.92-23.64,15.92-14.51,0-26.7-6.07-36.24-18.05a4.67,4.67,0,0,0-3.39-1.75,4.52,4.52,0,0,0-3.56,1.37l-25.74,26a4.66,4.66,0,0,0-.3,6.21c15.12,18.55,41.68,30.54,67.69,30.55,43.41,0,72.57-23.8,72.57-59.21C249.42,308.35,239.52,294,228.59,286.16Z"/>
      <path class="cls-2" d="M508.28,363.55c0-.22.13-.43.13-.65V10.78A10.77,10.77,0,0,0,497.63,0H14.37A10.77,10.77,0,0,0,3.59,10.78V501.22A10.77,10.77,0,0,0,14.37,512H359.3a11,11,0,0,0,7.63-3.15L505.26,370.52a10.73,10.73,0,0,0,2.11-3.16,8.29,8.29,0,0,0,.35-1A10.46,10.46,0,0,0,508.28,363.55ZM25.14,123.36H486.86V352l-70.61-.62v-5.86a4.66,4.66,0,0,0-4.66-4.66h-37.8V200.41a4.66,4.66,0,0,0-4.66-4.65H334.66a4.67,4.67,0,0,0-4.19,2.62C321.44,217,297,220,286.86,220.46a4.67,4.67,0,0,0-4.46,4.66v34.22a4.66,4.66,0,0,0,4.66,4.65c14.35,0,28.46-2.94,39.35-8.05v84.95H287.06a4.66,4.66,0,0,0-4.66,4.66v35.27a4.66,4.66,0,0,0,4.66,4.66h62.45l-.89,105H25.14ZM439.81,405.48a7.81,7.81,0,1,0-8.24,8.23L420.27,425a7.83,7.83,0,0,0-13.17,5.71,7.76,7.76,0,0,0,2.16,5.31l-10.64,10.63a7.67,7.67,0,0,0-5.49,5.49L370.3,475l.11-13.35a7.62,7.62,0,0,0,.13-15.09l.63-74,100.66.89Z"/>
      <path class="cls-2" d="M383.51,392.26a7.81,7.81,0,1,0-7.85-7.8A7.82,7.82,0,0,0,383.51,392.26Z"/>
      <path class="cls-2" d="M415,392.26a7.81,7.81,0,1,0-7.87-7.8A7.83,7.83,0,0,0,415,392.26Z"/>
      <path class="cls-2" d="M446.41,392.26a7.81,7.81,0,1,0-7.86-7.8A7.83,7.83,0,0,0,446.41,392.26Z"/>
      <path class="cls-2" d="M400.62,413.82a7.81,7.81,0,1,0-7.87-7.8A7.84,7.84,0,0,0,400.62,413.82Z"/>
      <path class="cls-2" d="M383.51,438.52a7.81,7.81,0,1,0-7.85-7.8A7.82,7.82,0,0,0,383.51,438.52Z"/>
    </g>
  </g>
</svg>
