<svg id="Layer_1" data-name="Layer 1" xmlns="http://www.w3.org/2000/svg" viewBox="0 0 512 512">
  <defs>
    <style>
      .cls-1 {
        fill: #fff;
      }

      .cls-2 {
        fill: #1a1a18;
      }
    </style>
  </defs>
  <title>cards</title>
  <g>
    <path class="cls-1" d="M488.4,84.83,316.12,45.57a20.39,20.39,0,0,0-24.41,15.34l-.41,1.78-72.46-4A20.38,20.38,0,0,0,197.35,77.9l-.33,6L114.13,94.15A20.38,20.38,0,0,0,96.4,116.88l.22,1.79L21.49,144.58A20.36,20.36,0,0,0,8.87,170.49l97.5,282.69a20.4,20.4,0,0,0,25.92,12.64L274.9,416.63l56.39-7a20.22,20.22,0,0,0,9.53-3.87l34.89,1.92,37.18,8.47A20.39,20.39,0,0,0,437.3,400.8l66.45-291.56A20.4,20.4,0,0,0,488.4,84.83Z"/>
    <g>
      <path class="cls-2" d="M377.09,174.7c-7.15,8.76-17.31,19.89-42.19,31.18-42.41,19.21-16.26,64.56,18.49,50.27-4.78,12.51-13.55,20.48-21.25,23.07l-.91,4.16L352.48,288l21.25,4.61.9-4.17c-5.95-5.55-10.61-16.43-9.78-29.81,25.7,27.42,68.32-3,37.68-38.06C384.57,200,380,185.64,377.09,174.7Z"/>
      <path class="cls-2" d="M154.51,161.17l-.13-1.68c-3.35-1.65-6.87-6.24-7.51-12.81a16.23,16.23,0,0,1,3.7,2.35A9.29,9.29,0,1,0,156,132.78a9.07,9.07,0,0,0-6.44,3.4,16.15,16.15,0,0,1-3.1,2.69,17.4,17.4,0,0,1,3.47-7.05,9.37,9.37,0,0,0-7.52-15.58,9.38,9.38,0,0,0-5,16.55,17.27,17.27,0,0,1,4.51,6.43,16.2,16.2,0,0,1-3.47-2.18,9.12,9.12,0,0,0-6.89-2.36A9.34,9.34,0,0,0,133,153.31a9.14,9.14,0,0,0,6.44-3.42,16.33,16.33,0,0,1,3.29-2.88c.38,6.58-2.39,11.65-5.44,13.8l.13,1.68,8.55-.66Z"/>
      <polygon class="cls-2" points="250.76 108.58 238.06 84.79 222.25 106.63 234.94 130.4 250.76 108.58"/>
      <path class="cls-2" d="M66.44,158.28c-5.72.56-9.84,6.61-9.84,12.54-3.81-4.54-10.86-6.5-15.59-3.25C36,171,35.8,177.79,39.4,183.15c4.21,6.27,28.18,17.92,28.23,17.87s10.89-24.36,10.08-31.86C77,162.74,72.54,157.67,66.44,158.28Z"/>
      <path class="cls-2" d="M284.42,294.27a5.1,5.1,0,1,0,3.69,6.18A5.1,5.1,0,0,0,284.42,294.27Z"/>
      <path class="cls-2" d="M273.32,275.71a5.1,5.1,0,1,0,6.19-3.7A5.1,5.1,0,0,0,273.32,275.71Z"/>
      <path class="cls-2" d="M262.15,299.18a5.1,5.1,0,1,0-3.69-6.19A5.1,5.1,0,0,0,262.15,299.18Z"/>
      <path class="cls-2" d="M278.16,340a5.1,5.1,0,1,0-6.2,3.7A5.11,5.11,0,0,0,278.16,340Z"/>
      <path class="cls-2" d="M259.59,351.09a5.1,5.1,0,1,0,3.7,6.19A5.08,5.08,0,0,0,259.59,351.09Z"/>
      <path class="cls-2" d="M279.36,356.07a5.1,5.1,0,1,0,3.7,6.19A5.1,5.1,0,0,0,279.36,356.07Z"/>
      <path class="cls-2" d="M299.14,361.05a5.1,5.1,0,1,0,3.69,6.2A5.11,5.11,0,0,0,299.14,361.05Z"/>
      <path class="cls-2" d="M318.91,366a5.09,5.09,0,1,0,3.69,6.19A5.1,5.1,0,0,0,318.91,366Z"/>
      <path class="cls-2" d="M317.7,350a5.1,5.1,0,1,0-6.19,3.69A5.12,5.12,0,0,0,317.7,350Z"/>
      <path class="cls-2" d="M297.93,345a5.1,5.1,0,1,0-6.19,3.71A5.1,5.1,0,0,0,297.93,345Z"/>
      <path class="cls-2" d="M272.11,259.64a5.1,5.1,0,1,0-3.7-6.19A5.1,5.1,0,0,0,272.11,259.64Z"/>
      <path class="cls-2" d="M338.68,371a5.09,5.09,0,1,0,3.7,6.18A5.1,5.1,0,0,0,338.68,371Z"/>
      <path class="cls-2" d="M258.38,335a5.09,5.09,0,1,0-6.19,3.7A5.1,5.1,0,0,0,258.38,335Z"/>
      <path class="cls-2" d="M273.25,317.74a5.1,5.1,0,1,0-6.19,3.7A5.1,5.1,0,0,0,273.25,317.74Z"/>
      <path class="cls-2" d="M214.75,300.24a5.1,5.1,0,1,0-4.71-5.45A5.09,5.09,0,0,0,214.75,300.24Z"/>
      <path class="cls-2" d="M203.09,319.83a5.09,5.09,0,1,0-4.71-5.45A5.1,5.1,0,0,0,203.09,319.83Z"/>
      <path class="cls-2" d="M209.53,371.42a5.09,5.09,0,1,0,4.71,5.45A5.08,5.08,0,0,0,209.53,371.42Z"/>
      <path class="cls-2" d="M200.85,350.34a5.1,5.1,0,1,0,4.71,5.45A5.1,5.1,0,0,0,200.85,350.34Z"/>
      <path class="cls-2" d="M212.51,330.75a5.09,5.09,0,1,0,4.71,5.45A5.08,5.08,0,0,0,212.51,330.75Z"/>
      <path class="cls-2" d="M151.6,351.4a5.1,5.1,0,1,0-4.33,5.76A5.09,5.09,0,0,0,151.6,351.4Z"/>
      <path class="cls-2" d="M164.55,406.18a5.1,5.1,0,1,0,5.75,4.34A5.09,5.09,0,0,0,164.55,406.18Z"/>
      <path class="cls-2" d="M151.58,387.45a5.09,5.09,0,1,0,5.76,4.32A5.08,5.08,0,0,0,151.58,387.45Z"/>
      <path class="cls-2" d="M158.8,365.81a5.1,5.1,0,1,0,5.77,4.33A5.1,5.1,0,0,0,158.8,365.81Z"/>
      <path class="cls-2" d="M132.38,437.67a5.1,5.1,0,1,0,6.5,3.1A5.09,5.09,0,0,0,132.38,437.67Z"/>
      <path class="cls-2" d="M116,421.88a5.09,5.09,0,1,0,6.5,3.1A5.08,5.08,0,0,0,116,421.88Z"/>
      <path class="cls-2" d="M490.29,76.55,318,37.29a29,29,0,0,0-6.43-.72,28.64,28.64,0,0,0-26.4,17.28h0L219.31,50.2a28.7,28.7,0,0,0-30.26,26.1l-76,9.42A28.86,28.86,0,0,0,88,117.93a28.57,28.57,0,0,1-.14-5.22L18.73,136.55A28.85,28.85,0,0,0,.84,173.26L98.34,456a28.87,28.87,0,0,0,36.72,17.89L276.84,425l55.49-6.89c2.93-.36,5.92-2.12,8.63-3.8l33.55,1.86L411,424.43a28.86,28.86,0,0,0,34.59-21.74L512,111.14A28.94,28.94,0,0,0,490.29,76.55ZM129.52,457.79a12.06,12.06,0,0,1-15.12-7.37L16.9,167.72a11.86,11.86,0,0,1,7.36-15.11l65.23-22.5L124.76,414.7A28.91,28.91,0,0,0,153.41,440a27.18,27.18,0,0,0,3.57-.23L195.51,435Zm131.15-48L154.89,423a11.87,11.87,0,0,1-13.27-10.33L104.83,115.83a11.9,11.9,0,0,1,10.35-13.25l72.8-9L172.37,376a28.93,28.93,0,0,0,27.25,30.44l61.07,3.37ZM200.56,389.5A11.93,11.93,0,0,1,189.33,377l16.5-298.59a11.89,11.89,0,0,1,11.86-11.22l63.09,3.48-63.8,280a28.88,28.88,0,0,0,21.74,34.58l37.21,8.48Zm294.9-282.14L429,398.92a12,12,0,0,1-14.24,8.95L242.49,368.6a11.88,11.88,0,0,1-9-14.24L300,62.8a11.93,11.93,0,0,1,14.24-8.95L486.51,93.12a11.89,11.89,0,0,1,8.95,14.24Z"/>
    </g>
  </g>
</svg>
