<svg id="Layer_1" data-name="Layer 1" xmlns="http://www.w3.org/2000/svg" viewBox="0 0 512 512">
  <defs>
    <style>
      .cls-1 {
        fill: #fff;
      }

      .cls-2 {
        fill: #030304;
      }
    </style>
  </defs>
  <title>check</title>
  <g>
    <path class="cls-1" d="M493.65,256c0,133.43-108.18,241.59-241.59,241.59S10.45,389.43,10.45,256,118.62,14.41,252.06,14.41,493.65,122.58,493.65,256Z"/>
    <g>
      <path class="cls-2" d="M508.17,65.27l-80.85-54.6a8.59,8.59,0,0,0-6.59-1.33,8.7,8.7,0,0,0-5.57,3.76L392.84,47A250.62,250.62,0,0,0,252.06,4C113.07,4,0,117,0,256S113.07,508,252.06,508s252-113.06,252-252a250.38,250.38,0,0,0-31.71-122.19l38.12-56.44A8.72,8.72,0,0,0,508.17,65.27ZM483.2,256c0,127.45-103.69,231.14-231.14,231.14A230.32,230.32,0,0,1,95,425.36a7,7,0,0,0,.51-.74,7.54,7.54,0,0,0-10.75-9.41A231.94,231.94,0,0,1,59.45,383.6a7.47,7.47,0,0,0,5.11-4.32,7.6,7.6,0,0,0-12.69-7.93,229.82,229.82,0,0,1-17.94-39,7.38,7.38,0,0,0-2.35-6.93c-2.18-6.89-4-13.92-5.54-21.06A7.44,7.44,0,0,0,31,300.13a7.52,7.52,0,0,0-7.58-10.41c-.92-6.16-1.55-12.42-1.95-18.73a7.56,7.56,0,0,0,2.65-14.58,7.35,7.35,0,0,0-3.18-.53c0-6.56.34-13,.88-19.46a7.38,7.38,0,0,0,1.4-12.67A229.54,229.54,0,0,1,34.83,177,7.57,7.57,0,1,0,39,166.37a230.85,230.85,0,0,1,23.12-41.89,7.38,7.38,0,0,0,8.4-11.32q6-7.64,12.67-14.77a7.54,7.54,0,0,0,3.87,3.69,7.54,7.54,0,0,0,6.15-13.76q7.29-6.91,15.16-13.18a7.52,7.52,0,1,0,11.36-8.49q8-5.6,16.44-10.51a7.87,7.87,0,0,0,2,1.34,7.61,7.61,0,0,0,9.92-4.13,7.34,7.34,0,0,0,.36-3.89,229.82,229.82,0,0,1,43-16.49,7.43,7.43,0,0,0-3.66,3.84,7.62,7.62,0,1,0,9.92-4.14,7.5,7.5,0,0,0-3.76-.41,229.79,229.79,0,0,1,48.26-7.15,6.38,6.38,0,0,0-.61.92,7.62,7.62,0,0,0,14.1,5.76,7.4,7.4,0,0,0-.75-6.86A229.78,229.78,0,0,1,381.34,64.5l-137.44,209-75.37-99.31a8.72,8.72,0,0,0-5.9-3.38,8.61,8.61,0,0,0-6.54,1.88L80.31,234.07A8.72,8.72,0,0,0,79,246.32l.08.11a6.64,6.64,0,0,0-1.2-.81,7.58,7.58,0,1,0,4.2,9.9,7.4,7.4,0,0,0,0-5.34L244.78,450.81a8.7,8.7,0,0,0,6.77,3.23h.37a8.68,8.68,0,0,0,6.84-3.83L459.12,153.46A229.48,229.48,0,0,1,483.2,256Z"/>
      <path class="cls-2" d="M88.59,380.89a7.58,7.58,0,1,0,4.18,9.89A7.62,7.62,0,0,0,88.59,380.89Z"/>
      <path class="cls-2" d="M121,402.32a7.63,7.63,0,1,0-9.92,4.13A7.6,7.6,0,0,0,121,402.32Z"/>
      <path class="cls-2" d="M59.21,311.64a7.63,7.63,0,1,0-9.91,4.13A7.59,7.59,0,0,0,59.21,311.64Z"/>
      <path class="cls-2" d="M87.44,323.15a7.62,7.62,0,1,0-9.92,4.14A7.62,7.62,0,0,0,87.44,323.15Z"/>
      <path class="cls-2" d="M115.67,334.68a7.63,7.63,0,1,0-9.91,4.12A7.59,7.59,0,0,0,115.67,334.68Z"/>
      <path class="cls-2" d="M143.93,346.2a7.63,7.63,0,1,0-9.93,4.14A7.6,7.6,0,0,0,143.93,346.2Z"/>
      <path class="cls-2" d="M57.68,335.56a7.58,7.58,0,1,0,4.2,9.9A7.56,7.56,0,0,0,57.68,335.56Z"/>
      <path class="cls-2" d="M90.1,357a7.62,7.62,0,1,0-9.91,4.14A7.56,7.56,0,0,0,90.1,357Z"/>
      <path class="cls-2" d="M118.35,368.5a7.63,7.63,0,1,0-9.9,4.14A7.56,7.56,0,0,0,118.35,368.5Z"/>
      <path class="cls-2" d="M142.38,370.12a7.57,7.57,0,1,0,4.2,9.9A7.59,7.59,0,0,0,142.38,370.12Z"/>
      <path class="cls-2" d="M119.5,426.24a7.58,7.58,0,1,0,4.19,9.9A7.57,7.57,0,0,0,119.5,426.24Z"/>
      <path class="cls-2" d="M53.87,244A7.62,7.62,0,1,0,44,248.12,7.6,7.6,0,0,0,53.87,244Z"/>
      <path class="cls-2" d="M56.53,277.81A7.62,7.62,0,1,0,46.61,282,7.56,7.56,0,0,0,56.53,277.81Z"/>
      <path class="cls-2" d="M84.77,289.35a7.62,7.62,0,1,0-9.92,4.12A7.6,7.6,0,0,0,84.77,289.35Z"/>
      <path class="cls-2" d="M113,300.85a7.63,7.63,0,1,0-9.9,4.14A7.61,7.61,0,0,0,113,300.85Z"/>
      <path class="cls-2" d="M76.77,187.87A7.62,7.62,0,1,0,66.85,192,7.57,7.57,0,0,0,76.77,187.87Z"/>
      <path class="cls-2" d="M90.9,193.64a7.62,7.62,0,1,0,9.91-4.13A7.57,7.57,0,0,0,90.9,193.64Z"/>
      <path class="cls-2" d="M51.21,210.17a7.63,7.63,0,1,0-9.94,4.13A7.61,7.61,0,0,0,51.21,210.17Z"/>
      <path class="cls-2" d="M79.43,221.7a7.62,7.62,0,1,0-9.92,4.13A7.59,7.59,0,0,0,79.43,221.7Z"/>
      <path class="cls-2" d="M64.16,158.19A7.58,7.58,0,1,0,60,148.3,7.61,7.61,0,0,0,64.16,158.19Z"/>
      <path class="cls-2" d="M88.21,159.82a7.62,7.62,0,1,0,9.92-4.14A7.61,7.61,0,0,0,88.21,159.82Z"/>
      <path class="cls-2" d="M116.46,171.35a7.62,7.62,0,1,0,9.9-4.14A7.58,7.58,0,0,0,116.46,171.35Z"/>
      <path class="cls-2" d="M201.17,205.9a7.63,7.63,0,1,0,9.91-4.13A7.62,7.62,0,0,0,201.17,205.9Z"/>
      <path class="cls-2" d="M89.75,135.9a7.58,7.58,0,1,0-4.2-9.89A7.59,7.59,0,0,0,89.75,135.9Z"/>
      <path class="cls-2" d="M113.77,137.53a7.63,7.63,0,1,0,10-4.14A7.6,7.6,0,0,0,113.77,137.53Z"/>
      <path class="cls-2" d="M142,149.05a7.62,7.62,0,1,0,9.93-4.14A7.6,7.6,0,0,0,142,149.05Z"/>
      <path class="cls-2" d="M170.23,160.57a7.63,7.63,0,1,0,9.93-4.14A7.6,7.6,0,0,0,170.23,160.57Z"/>
      <path class="cls-2" d="M198.49,172.09a7.63,7.63,0,1,0,9.92-4.14A7.58,7.58,0,0,0,198.49,172.09Z"/>
      <path class="cls-2" d="M115.3,113.59a7.58,7.58,0,1,0-4.19-9.9A7.59,7.59,0,0,0,115.3,113.59Z"/>
      <path class="cls-2" d="M139.35,115.22a7.62,7.62,0,1,0,9.92-4.13A7.59,7.59,0,0,0,139.35,115.22Z"/>
      <path class="cls-2" d="M167.58,126.74a7.62,7.62,0,1,0,9.93-4.14A7.61,7.61,0,0,0,167.58,126.74Z"/>
      <path class="cls-2" d="M195.81,138.26a7.63,7.63,0,1,0,9.95-4.13A7.62,7.62,0,0,0,195.81,138.26Z"/>
      <path class="cls-2" d="M224.07,149.79a7.62,7.62,0,1,0,9.92-4.14A7.6,7.6,0,0,0,224.07,149.79Z"/>
      <path class="cls-2" d="M220.25,58.21a7.57,7.57,0,1,0-4.2-9.89A7.57,7.57,0,0,0,220.25,58.21Z"/>
      <path class="cls-2" d="M248.48,69.75a7.58,7.58,0,1,0-4.21-9.89A7.62,7.62,0,0,0,248.48,69.75Z"/>
      <path class="cls-2" d="M274,47.43a7.57,7.57,0,1,0-4.19-9.88A7.6,7.6,0,0,0,274,47.43Z"/>
      <path class="cls-2" d="M140.87,91.3a7.58,7.58,0,1,0-4.2-9.9A7.62,7.62,0,0,0,140.87,91.3Z"/>
      <path class="cls-2" d="M164.91,92.91a7.62,7.62,0,1,0,9.92-4.11A7.58,7.58,0,0,0,164.91,92.91Z"/>
      <path class="cls-2" d="M193.14,104.43a7.62,7.62,0,1,0,9.92-4.13A7.62,7.62,0,0,0,193.14,104.43Z"/>
      <path class="cls-2" d="M221.38,116a7.64,7.64,0,1,0,9.93-4.12A7.61,7.61,0,0,0,221.38,116Z"/>
      <path class="cls-2" d="M166.44,69a7.58,7.58,0,1,0-4.21-9.9A7.61,7.61,0,0,0,166.44,69Z"/>
      <path class="cls-2" d="M194.67,80.52a7.58,7.58,0,1,0-4.19-9.9A7.6,7.6,0,0,0,194.67,80.52Z"/>
      <path class="cls-2" d="M218.7,82.14A7.63,7.63,0,1,0,228.64,78,7.61,7.61,0,0,0,218.7,82.14Z"/>
      <path class="cls-2" d="M247,93.67a7.63,7.63,0,1,0,9.92-4.14A7.62,7.62,0,0,0,247,93.67Z"/>
    </g>
  </g>
</svg>
