<svg id="Layer_1" data-name="Layer 1" xmlns="http://www.w3.org/2000/svg" viewBox="0 0 512 512">
  <defs>
    <style>
      .cls-1 {
        fill: #fff;
      }

      .cls-2 {
        fill: #1a1a18;
      }
    </style>
  </defs>
  <title>circus</title>
  <g>
    <path class="cls-1" d="M500.71,324.43S409.4,242.25,409.4,141.1c0,55-34.34,80.6-76.7,80.6S256,196.08,256,141.1c0,55-34.34,80.6-76.71,80.6s-76.69-25.62-76.69-80.6c0,101.15-91.31,183.33-91.31,183.33h19L12.44,388.65H499.55l-17.87-64.22Z"/>
    <g>
      <path class="cls-2" d="M508.09,327.26a7.91,7.91,0,0,0-2.09-8.7c-.89-.8-88.7-81.11-88.7-177.46a7.72,7.72,0,0,0-1.68-4.66l23.21-6.65a3.17,3.17,0,0,0,0-6.08l-28.47-8.14a3.09,3.09,0,0,0-2.76.51,3.15,3.15,0,0,0-1.26,2.52v15.22a7.88,7.88,0,0,0-4.84,7.28c0,45.53-25.72,72.7-68.8,72.7s-68.8-27.17-68.8-72.7a7.68,7.68,0,0,0-1.56-4.47L285.52,130a3.17,3.17,0,0,0,0-6.08l-28.46-8.15a3.19,3.19,0,0,0-2.77.52A3.15,3.15,0,0,0,253,118.8v15a7.88,7.88,0,0,0-4.94,7.31c0,45.53-25.72,72.7-68.8,72.7s-68.79-27.17-68.79-72.7a7.66,7.66,0,0,0-1.38-4.21l22.7-6.51a3.16,3.16,0,0,0,0-6.07l-28.46-8.15a3.17,3.17,0,0,0-4,3v14.74a7.87,7.87,0,0,0-4.63,7.16C94.7,237.45,6.89,317.76,6,318.56a7.91,7.91,0,0,0,5.29,13.78h8.63L4.83,386.54a7.91,7.91,0,0,0,7.61,10H499.55a7.91,7.91,0,0,0,7.62-10l-15.09-54.2h8.63A7.91,7.91,0,0,0,508.09,327.26Zm-32.62-17.51c2.16,2.44,4.25,4.74,6.15,6.78h-6.15Zm-30.21-39.22c6.21,9.34,12.48,17.83,18.41,25.23v20.77H445.26Zm-30.81-60a269.83,269.83,0,0,0,19,40.79v65.19h-19Zm-30.22,4.14a71.54,71.54,0,0,0,18.41-19.06v120.9H384.23Zm-30.82,12.92a84.85,84.85,0,0,0,19-6.1v95h-19Zm-30.21,1.51c1.23.1,2.52.12,3.76.19,0,.19-.1.33-.1.52a4.74,4.74,0,1,0,9.48,0c0-.14-.07-.25-.08-.38,1.79-.07,3.61-.1,5.35-.23v87.31H323.2Zm-30.82-8a83.88,83.88,0,0,0,19,6.31v89.07h-19Zm-30.22-26.43a71.72,71.72,0,0,0,18.41,19.41v102.4H262.16Zm-30.81,19.53a71.92,71.92,0,0,0,19-20.32v122.6h-19Zm-30.22,13.12c2.24-.48,4.34-1.15,6.46-1.78a4.68,4.68,0,1,0,2-.5,3.8,3.8,0,0,0-.76.16,84.25,84.25,0,0,0,10.66-4.08v95.36H201.13Zm-30.82,1.84c2.93.24,5.91.4,9,.4,3.45,0,6.76-.23,10-.52v87.44h-19Zm-30.21-7.47a79.29,79.29,0,0,0,8.82,3.38,4.73,4.73,0,1,0,4.88,4.71,4.67,4.67,0,0,0-2.49-4.09c2.36.67,4.72,1.35,7.2,1.85v88.94H140.1ZM109.28,195.5a71.58,71.58,0,0,0,19,19.57V316.53h-19ZM79.06,250.42c2.91-5.14,5.68-10.54,8.35-16.06a4.63,4.63,0,0,0,1.06.21,4.74,4.74,0,0,0,4.74-4.74,4.64,4.64,0,0,0-2-3.75c2.2-5,4.32-10.07,6.24-15.32V316.53H79.06ZM48.25,295.86c6.11-7.63,12.6-16.42,19-26.12v46.79h-19Zm-11.81,14v6.68H30.38C32.26,314.53,34.31,312.25,36.44,309.85Zm452.71,70.9H22.85l13.47-48.41H475.67Z"/>
      <circle class="cls-2" cx="331.6" cy="305.69" r="4.74"/>
      <circle class="cls-2" cx="331.6" cy="267.76" r="4.74"/>
      <circle class="cls-2" cx="271.54" cy="305.69" r="4.74"/>
      <circle class="cls-2" cx="271.54" cy="267.76" r="4.74"/>
      <circle class="cls-2" cx="271.54" cy="229.83" r="4.74"/>
      <circle class="cls-2" cx="209.64" cy="305.69" r="4.74"/>
      <circle class="cls-2" cx="209.64" cy="267.76" r="4.74"/>
      <circle class="cls-2" cx="149.06" cy="305.69" r="4.74"/>
      <circle class="cls-2" cx="149.06" cy="267.76" r="4.74"/>
      <circle class="cls-2" cx="88.47" cy="305.69" r="4.74"/>
      <circle class="cls-2" cx="88.47" cy="267.76" r="4.74"/>
      <circle class="cls-2" cx="392.71" cy="305.69" r="4.74"/>
      <circle class="cls-2" cx="392.71" cy="267.76" r="4.74"/>
      <circle class="cls-2" cx="392.71" cy="229.83" r="4.74"/>
      <circle class="cls-2" cx="453.82" cy="305.69" r="4.74"/>
    </g>
  </g>
</svg>
