<svg id="Layer_1" data-name="Layer 1" xmlns="http://www.w3.org/2000/svg" viewBox="0 0 512 512">
  <defs>
    <style>
      .cls-1 {
        fill: #fff;
      }

      .cls-2 {
        fill: #1a1a18;
      }
    </style>
  </defs>
  <title>coffee</title>
  <g>
    <path class="cls-1" d="M148.11,231c14.84-26-33.79-65.35-33.79-65.35S71.52,134,91,106.53c22-30,53.65-12.77,69.94,8s48.54,39.6,57.8,1.6S194.15,8.17,265,14.88s35.77,70.89,23.63,91.33,24.27,35.13,56.53,21.08S389,135,380.64,155.71c-4.95,12.77-2.67,35.21,22.2,32.09,22.89-2.87,34.65,28.26,8.33,39.85-8.79,3.87-32.53,5.65-52.26,3.41C279.89,304,178.29,272.91,148.11,231Z"/>
    <g>
      <path class="cls-2" d="M371.78,271.06V244.61c1.83.06,3.58.2,5.44.2,6.26,0,27.55-.39,39.1-5.47,16.7-7.35,25.32-22.41,22-38.36-3.54-16.82-18.83-28.13-37-25.85a22.83,22.83,0,0,1-2.89.19c-4.31,0-5.28-1.42-5.65-1.94-1.83-2.68-1.9-8.54-.2-12.93,5.35-13.35,4.55-27.23-2.14-37.08-9.46-14-28.37-17.35-50.26-7.79a53.76,53.76,0,0,1-21.32,4.48c-12.17,0-19.06-4.4-19.73-5.94a4.31,4.31,0,0,1,.61-1.39C320.61,77.44,326.1,49.44,316,29.5c-8-15.78-24.75-25-49.71-27.34-3.64-.34-7-.5-10.19-.5-16.59,0-29.32,4.63-37.83,13.75-14.75,15.82-13.07,39.76-11.46,62.92.88,12.59,1.79,25.62-.45,34.76-1.95,8-4.81,12.11-8.48,12.11-7,0-18.54-8-26.85-18.57-14.26-18.17-33.53-29-51.56-29-10.51,0-25.76,3.71-38.84,21.54-21.1,29.74,6.5,62.24,25.69,76.4,14,11.34,37.41,37.39,30.74,49.08h0a12.78,12.78,0,0,0-1.27,3.24,10.33,10.33,0,0,0-.17,1.26,12.38,12.38,0,0,0-.24,1.83V471.28a12.77,12.77,0,0,0,6.64,11.2c33.3,18.23,69.6,27.86,105,27.86,2.32,0,4.62,0,6-.12,2.28.08,4.59.12,6.91.12,35.61,0,72-9.64,105.31-27.86a12.76,12.76,0,0,0,6.63-11.2V426.59c35-2.59,62.79-36.43,62.79-77.77S406.77,273.64,371.78,271.06Zm-11.3-52.67a12.54,12.54,0,0,0-2.67,0,3.27,3.27,0,0,0-.45,0,12.56,12.56,0,0,0-2.19.47c-.29.09-.55.21-.83.32a11.44,11.44,0,0,0-1.47.57,191.32,191.32,0,0,1-91.63,23c-2.48,0-4.95,0-8.31-.13-2.44.08-4.88.13-7.37.13a191.83,191.83,0,0,1-82.21-18.35c3.66-31.34-35.92-64.59-41.44-69-.33-.24-32.19-24.91-20.61-41.26,5.4-7.35,11.33-10.93,18.13-10.93,9.93,0,22.29,7.56,31.46,19.25,10.76,13.71,28.74,28.35,47,28.35,7.71,0,26.36-3.08,33.31-31.62,3.17-13,2.12-28,1.1-42.59-1.23-17.7-2.5-36,4.66-43.71,4.4-4.71,13.56-6.5,26.93-5.23,15.68,1.48,25.55,6,29.34,13.48,3.33,6.54,5.74,22.85-15.49,58.61-5.24,8.83-5.54,18.65-.83,26.93,6.66,11.71,22.73,19,41.92,19A79.52,79.52,0,0,0,350.3,139c6.46-2.81,10.79-3.4,13.3-3.4,4.19,0,5.26,1.58,5.61,2.1,1.53,2.25,2,7.23-.48,13.4-3.7,9.58-5.17,24.94,2.89,36.72,5.77,8.42,15.26,13.05,26.73,13.05a48.45,48.45,0,0,0,6.07-.38c5-.63,8.19,2.55,8.87,5.77,1.08,5.19-4.08,8.31-7.27,9.7-2.9,1.29-13.29,3.32-28.8,3.32A152.72,152.72,0,0,1,360.48,218.39Zm11.3,182.36V296.91c20.86,2.74,37.25,24.82,37.25,51.91S392.64,398,371.78,400.75Z"/>
      <circle class="cls-2" cx="164.13" cy="184.13" r="7.66"/>
      <circle class="cls-2" cx="148.8" cy="153.47" r="7.66"/>
      <circle class="cls-2" cx="133.48" cy="122.82" r="7.66"/>
      <circle class="cls-2" cx="194.79" cy="184.13" r="7.66"/>
      <circle class="cls-2" cx="210.12" cy="214.79" r="7.66"/>
      <circle class="cls-2" cx="179.46" cy="214.79" r="7.66"/>
      <circle class="cls-2" cx="240.77" cy="214.79" r="7.66"/>
      <circle class="cls-2" cx="271.43" cy="214.79" r="7.66"/>
      <circle class="cls-2" cx="302.09" cy="214.79" r="7.66"/>
      <circle class="cls-2" cx="317.41" cy="184.13" r="7.66"/>
      <circle class="cls-2" cx="332.74" cy="214.79" r="7.66"/>
      <circle class="cls-2" cx="348.07" cy="184.13" r="7.66"/>
    </g>
  </g>
</svg>
