<svg id="Layer_1" data-name="Layer 1" xmlns="http://www.w3.org/2000/svg" viewBox="0 0 512 512">
  <defs>
    <style>
      .cls-1 {
        fill: #fff;
      }

      .cls-2 {
        fill: #1a1a18;
      }
    </style>
  </defs>
  <title>headphones</title>
  <g>
    <g>
      <path class="cls-1" d="M144.69,268.27l-57.5,10.14c-27.14,4.78-40.44,58-29.71,118.84s41.43,106.3,68.57,101.51l57.49-10.14c27.14-4.79,40.45-58,29.72-118.84S171.83,263.48,144.69,268.27Z"/>
      <path class="cls-1" d="M424.8,278.41l-57.49-10.14c-27.14-4.79-57.84,40.66-68.57,101.51s2.57,114.05,29.71,118.84L386,498.76c27.14,4.79,57.84-40.66,68.57-101.51S451.94,283.19,424.8,278.41Z"/>
    </g>
    <g>
      <path class="cls-2" d="M357.84,401.07a6.36,6.36,0,1,0,5.17,7.36A6.35,6.35,0,0,0,357.84,401.07Z"/>
      <path class="cls-2" d="M332.78,396.65a6.36,6.36,0,1,0,5.16,7.37A6.36,6.36,0,0,0,332.78,396.65Z"/>
      <path class="cls-2" d="M371.85,358.31a6.37,6.37,0,1,0-7.37,5.16A6.38,6.38,0,0,0,371.85,358.31Z"/>
      <path class="cls-2" d="M346.78,353.89a6.36,6.36,0,1,0-7.36,5.17A6.37,6.37,0,0,0,346.78,353.89Z"/>
      <path class="cls-2" d="M374.79,378.22a6.36,6.36,0,1,0,5.17,7.36A6.34,6.34,0,0,0,374.79,378.22Z"/>
      <path class="cls-2" d="M354.89,381.17a6.36,6.36,0,1,0-7.36,5.16A6.36,6.36,0,0,0,354.89,381.17Z"/>
      <path class="cls-2" d="M329.83,376.75a6.36,6.36,0,1,0-7.37,5.15A6.35,6.35,0,0,0,329.83,376.75Z"/>
      <path class="cls-2" d="M151.44,408.43a6.37,6.37,0,1,0,5.17-7.36A6.37,6.37,0,0,0,151.44,408.43Z"/>
      <path class="cls-2" d="M176.51,404a6.36,6.36,0,1,0,5.17-7.37A6.36,6.36,0,0,0,176.51,404Z"/>
      <path class="cls-2" d="M150,363.47a6.36,6.36,0,1,0-7.37-5.16A6.34,6.34,0,0,0,150,363.47Z"/>
      <path class="cls-2" d="M175,359.06a6.37,6.37,0,1,0-7.36-5.17A6.36,6.36,0,0,0,175,359.06Z"/>
      <path class="cls-2" d="M141.86,390.74a6.36,6.36,0,1,0-7.37-5.16A6.35,6.35,0,0,0,141.86,390.74Z"/>
      <path class="cls-2" d="M166.93,386.33a6.36,6.36,0,1,0-7.37-5.16A6.35,6.35,0,0,0,166.93,386.33Z"/>
      <path class="cls-2" d="M192,381.9a6.36,6.36,0,1,0-7.36-5.15A6.35,6.35,0,0,0,192,381.9Z"/>
      <path class="cls-2" d="M489.08,330.91A238.26,238.26,0,0,0,426.66,100l11.45-12.69a10.6,10.6,0,0,0-.7-14.91A265,265,0,0,0,81.27,69.66a10.6,10.6,0,0,0-.81,15L91.83,97.27A238.09,238.09,0,0,0,25.44,326.61c-10.72,16.52-14.52,45.19-8.77,77.83,8,45.55,30.22,77.35,53.94,77.35h0a25.28,25.28,0,0,0,4.51-.39l3.34-.59h0c13,18.14,28.21,28.89,43.62,28.9a33.37,33.37,0,0,0,5.81-.51l57.49-10.14c34-6,50.44-62.36,38.32-131.12-12-68-47.08-116.09-80.85-110.12L85.35,268C68,271,55.25,287.29,48.5,311.58l-3.22.57a23.37,23.37,0,0,0-2.87.78A219.14,219.14,0,0,1,105,111.84l9.58,10.6a10.59,10.59,0,0,0,14.91.82A193,193,0,0,1,389,125.78a10.61,10.61,0,0,0,7.19,2.82,3.85,3.85,0,0,0,.48,0A10.58,10.58,0,0,0,404,125.1l9.48-10.5A219.14,219.14,0,0,1,473,314.2a25.16,25.16,0,0,0-6.23-2.05l-3.23-.57C456.75,287.29,444,271,426.64,268l-57.49-10.14a34.28,34.28,0,0,0-5.81-.51c-32.18,0-63.74,46.53-75,110.63-12.12,68.76,4.35,125.13,38.33,131.12l57.49,10.14a33.28,33.28,0,0,0,5.81.51c15.41,0,30.65-10.75,43.62-28.9h0l3.33.59a25.36,25.36,0,0,0,4.51.39c23.73,0,45.91-31.8,53.94-77.35C500.6,374.48,497.85,347.86,489.08,330.91Zm-342.55-52.2a11.61,11.61,0,0,1,2.12-.19c18.23,0,44.34,37.41,54.16,93.1C212.88,428.7,200,475,181.7,478.17a11.64,11.64,0,0,1-2.13.19c-18.22,0-44.34-37.4-54.15-93.09C115.35,328.19,128.26,281.93,146.53,278.71ZM89,288.85l23.15-4.08C100.48,308.83,97,346.51,104.52,389c7.43,42.11,23.62,76.53,43,95.26l-23.28,4.1a11.8,11.8,0,0,1-2.13.19c-18.23,0-44.34-37.41-54.16-93.09C57.86,338.33,70.76,292.07,89,288.85ZM332.42,478.36a11.8,11.8,0,0,1-2.13-.19C312,475,299.12,428.7,309.18,371.62c9.82-55.69,35.93-93.1,54.16-93.1a11.72,11.72,0,0,1,2.13.19c18.27,3.22,31.18,49.48,21.11,106.56C376.76,441,350.65,478.36,332.42,478.36Zm111.65-82.95c-9.81,55.69-35.93,93.09-54.15,93.09a11.8,11.8,0,0,1-2.13-.19l-23.28-4.1c19.34-18.73,35.54-53.15,43-95.26,7.48-42.44,4-80.12-7.65-104.18L423,288.85C441.23,292.07,454.14,338.33,444.07,395.41Z"/>
    </g>
  </g>
</svg>
