<svg id="Layer_1" data-name="Layer 1" xmlns="http://www.w3.org/2000/svg" viewBox="0 0 512 512">
  <defs>
    <style>
      .cls-1 {
        fill: #fff;
      }

      .cls-2 {
        fill: #1a1a18;
      }
    </style>
  </defs>
  <title>love</title>
  <g>
    <g>
      <path class="cls-1" d="M224.7,128.44l-13.91-17.21a4.41,4.41,0,0,0-3.13-1.64,4.54,4.54,0,0,0-3.34,1.15l-130,119.13a4.46,4.46,0,0,0,0,6.56l130,119.12a4.48,4.48,0,0,0,3,1.16h.33a4.41,4.41,0,0,0,3.13-1.64l13.91-17.21a4.45,4.45,0,0,0-.44-6.07L117.61,233.15l106.65-98.64A4.45,4.45,0,0,0,224.7,128.44Z"/>
      <path class="cls-1" d="M384.91,222.24c17.73-13.26,27-30.64,27-50.63C412,134.22,382.1,105,344,105c-31.17,0-57.69,16.67-72.77,45.73A4.44,4.44,0,0,0,273,156.6l20.84,11.91a4.45,4.45,0,0,0,6.27-2c7.17-15.82,22.7-31.79,41.27-31.79,21,0,36.91,15,36.91,34.92,0,27.21-24.56,41.41-47.28,40.23a4,4,0,0,0-3.29,1.22,4.45,4.45,0,0,0-1.38,3.23v20.83a4.51,4.51,0,0,0,1.45,3.3,4.29,4.29,0,0,0,3.42,1.14c2.49-.23,4.92-.35,7.33-.35,31.25,0,50.67,19,50.67,49.52,0,26-17.74,42.86-45.18,42.86-21.37,0-35.62-10.71-46.21-34.73a4.49,4.49,0,0,0-2.71-2.45,4.43,4.43,0,0,0-3.64.41l-21.84,12.91a4.48,4.48,0,0,0-1.55,6.13c19.52,32.39,43.33,47.48,75,47.48,47,0,79.91-31.21,79.91-75.92C422.89,257.71,409.47,235.54,384.91,222.24Z"/>
    </g>
    <path class="cls-2" d="M472.3,38.22H39.7c-20.52,0-37.2,16.89-37.2,37.65v315c0,20.76,16.68,37.64,37.2,37.64H362.12l24.1,39.89a11.13,11.13,0,0,0,9.44,5.38h.1a11.14,11.14,0,0,0,9.43-5.2l25.19-40.07H472.3c20.52,0,37.2-16.88,37.2-37.64v-315C509.5,55.11,492.82,38.22,472.3,38.22Zm-248,293.56a4.45,4.45,0,0,1,.44,6.07l-13.91,17.21a4.41,4.41,0,0,1-3.13,1.64h-.33a4.48,4.48,0,0,1-3-1.16l-130-119.12a4.46,4.46,0,0,1,0-6.56l130-119.13a4.54,4.54,0,0,1,3.34-1.15,4.41,4.41,0,0,1,3.13,1.64l13.91,17.21a4.45,4.45,0,0,1-.44,6.07L117.61,233.15ZM343,361.34c-31.62,0-55.43-15.09-75-47.48a4.48,4.48,0,0,1,1.55-6.13l21.84-12.91a4.43,4.43,0,0,1,3.64-.41,4.49,4.49,0,0,1,2.71,2.45c10.59,24,24.84,34.73,46.21,34.73,27.44,0,45.18-16.83,45.18-42.86,0-30.55-19.42-49.52-50.67-49.52-2.41,0-4.84.12-7.33.35a4.29,4.29,0,0,1-3.42-1.14,4.51,4.51,0,0,1-1.45-3.3V214.29a4.45,4.45,0,0,1,1.38-3.23,4,4,0,0,1,3.29-1.22c22.72,1.18,47.28-13,47.28-40.23,0-19.91-15.87-34.92-36.91-34.92-18.57,0-34.1,16-41.27,31.79a4.45,4.45,0,0,1-6.27,2L273,156.6a4.44,4.44,0,0,1-1.74-5.92C286.29,121.62,312.81,105,344,105c38.12,0,68,29.27,68,66.66,0,20-9.32,37.37-27,50.63,24.56,13.3,38,35.47,38,63.18C422.89,330.13,390,361.34,343,361.34Z"/>
  </g>
</svg>
