<svg id="Layer_1" data-name="Layer 1" xmlns="http://www.w3.org/2000/svg" viewBox="0 0 512 512">
  <defs>
    <style>
      .cls-1 {
        fill: #fff;
      }

      .cls-2 {
        fill: #030304;
      }
    </style>
  </defs>
  <title>map</title>
  <g>
    <polygon class="cls-1" points="306.32 126.83 306.32 75.66 137.62 62.87 137.62 437.84 169.6 440.26 169.6 501.8 351.1 501.8 351.1 126.83 306.32 126.83"/>
    <g>
      <path class="cls-2" d="M351.1,116.63H316.52v-41a10.13,10.13,0,0,0-.64-3.37c-.09-.25-.17-.49-.28-.74a10,10,0,0,0-1.74-2.74,3.17,3.17,0,0,0-.34-.3,9.69,9.69,0,0,0-1.39-1.24,7.6,7.6,0,0,0-.94-.49c-.23-.13-.46-.27-.7-.38a10,10,0,0,0-3.22-.87l-.18,0-28.94-2.2V11.71A10.22,10.22,0,0,0,264.21,2.2L133.89,53.36a10.06,10.06,0,0,0-3,1.88c-.07.07-.16.08-.24.14s-.21.35-.35.5a10.34,10.34,0,0,0-1.7,2.4,9.79,9.79,0,0,0-.45.92,10.11,10.11,0,0,0-.76,3.67v375a9.79,9.79,0,0,0,.65,3.36c.09.26.17.5.28.75a10.21,10.21,0,0,0,1.74,2.76c.09.09.19.15.28.24a9.92,9.92,0,0,0,1.5,1.32c.24.17.52.23.76.37a9.67,9.67,0,0,0,1.13.53,9.86,9.86,0,0,0,2.36.65c.26,0,.47.18.73.2l22.55,1.71v52.06a10,10,0,0,0,.72,3.56c.08.23.15.45.25.67a9.93,9.93,0,0,0,1.88,2.79c.16.17.33.29.5.45a9.12,9.12,0,0,0,1,.92,8.44,8.44,0,0,0,1.21.59,9.11,9.11,0,0,0,1,.51,10.18,10.18,0,0,0,3.56.72H351.1a10.21,10.21,0,0,0,10.21-10.21v-375A10.21,10.21,0,0,0,351.1,116.63ZM147.83,428.38V73.88l111.52,8.46L166,117.27c-.08,0-.14.09-.22.12-.27.11-.48.29-.74.42a10.16,10.16,0,0,0-2.27,1.53c-.29.27-.53.54-.8.84a9.74,9.74,0,0,0-1.39,2.07,9,9,0,0,0-.48,1,9.92,9.92,0,0,0-.73,3.59V429.26ZM340.9,491.59H179.81V137h7.62c2.5,18.82,17.51,39.47,19.93,42.69,11.34,14.83,27.09,21.75,42.32,28.44,14.92,6.56,29,12.76,39.25,25.93,23.55,30.71,8.16,59.45-8.13,89.88-14.92,27.86-31.5,59.08-8.83,88.91L251.71,403a6.8,6.8,0,1,0-6,12.24l42.36,20.6a6.84,6.84,0,0,0,6.07-.06,6.85,6.85,0,0,0,3.61-4.88l8.92-50.24a6.8,6.8,0,0,0-5.51-7.89,6.9,6.9,0,0,0-7.89,5.51l-5.68,32c-23.09-23.47-13.07-45.83,5.16-79.89,16.79-31.36,35.83-66.9,6.9-104.63-12.38-15.91-28.73-23.1-44.54-30.05-14.28-6.28-27.77-12.22-36.94-24.21-7.17-9.54-14.85-23.7-16.9-34.47H340.9Z"/>
      <path class="cls-2" d="M187,348.16a7.2,7.2,0,1,0,8.85,5.09A7.24,7.24,0,0,0,187,348.16Z"/>
      <path class="cls-2" d="M223,473.11a7.2,7.2,0,1,0,8.84,5.09A7.23,7.23,0,0,0,223,473.11Z"/>
      <path class="cls-2" d="M251,465.62a7.2,7.2,0,1,0,8.87,5.07A7.24,7.24,0,0,0,251,465.62Z"/>
      <path class="cls-2" d="M223.82,345.75a7.25,7.25,0,1,0-5.13,8.83A7.19,7.19,0,0,0,223.82,345.75Z"/>
      <path class="cls-2" d="M246.69,347.09A7.2,7.2,0,1,0,237.8,342,7.22,7.22,0,0,0,246.69,347.09Z"/>
      <path class="cls-2" d="M268.59,192.45a7.2,7.2,0,1,0-8.89-5.08A7.23,7.23,0,0,0,268.59,192.45Z"/>
      <path class="cls-2" d="M296.59,185a7.19,7.19,0,1,0-8.87-5.09A7.21,7.21,0,0,0,296.59,185Z"/>
      <path class="cls-2" d="M324.58,177.47a7.21,7.21,0,1,0-8.84-5.1A7.26,7.26,0,0,0,324.58,177.47Z"/>
      <path class="cls-2" d="M229.59,441.54a7.21,7.21,0,1,0,8.84,5.08A7.26,7.26,0,0,0,229.59,441.54Z"/>
      <path class="cls-2" d="M257.57,434.05a7.2,7.2,0,1,0,8.86,5.07A7.21,7.21,0,0,0,257.57,434.05Z"/>
      <path class="cls-2" d="M231.79,291.44a7.2,7.2,0,1,0-8.87-5.09A7.22,7.22,0,0,0,231.79,291.44Z"/>
      <path class="cls-2" d="M259.8,283.93a7.2,7.2,0,1,0-8.86-5.06A7.2,7.2,0,0,0,259.8,283.93Z"/>
      <path class="cls-2" d="M287.79,276.45a7.2,7.2,0,1,0-8.88-5.08A7.25,7.25,0,0,0,287.79,276.45Z"/>
      <path class="cls-2" d="M225.23,323a7.19,7.19,0,1,0-8.86-5.08A7.21,7.21,0,0,0,225.23,323Z"/>
      <path class="cls-2" d="M253.22,315.53a7.2,7.2,0,1,0-8.83-5.09A7.23,7.23,0,0,0,253.22,315.53Z"/>
      <path class="cls-2" d="M281.25,308a7.21,7.21,0,1,0-8.86-5.1A7.21,7.21,0,0,0,281.25,308Z"/>
      <path class="cls-2" d="M275.13,160.88a7.2,7.2,0,1,0-8.85-5.09A7.24,7.24,0,0,0,275.13,160.88Z"/>
      <path class="cls-2" d="M215.48,258.52a7.25,7.25,0,1,0-5.13,8.83A7.25,7.25,0,0,0,215.48,258.52Z"/>
    </g>
  </g>
</svg>
