<svg id="Layer_1" data-name="Layer 1" xmlns="http://www.w3.org/2000/svg" viewBox="0 0 512 512">
  <defs>
    <style>
      .cls-1 {
        fill: #fff;
      }

      .cls-2 {
        fill: #1a1a18;
      }
    </style>
  </defs>
  <title>paint</title>
  <g>
    <path class="cls-1" d="M385.38,208l34.94-22.05L133.49,65.38,22.91,327.75a18.8,18.8,0,0,0,10,24.62L261.5,448.45a19.15,19.15,0,0,0,24.64-10.05l95.1-225.52A10.67,10.67,0,0,1,385.38,208Z"/>
    <g>
      <path class="cls-2" d="M59.28,344.65A6.41,6.41,0,1,0,62.72,353,6.41,6.41,0,0,0,59.28,344.65Z"/>
      <path class="cls-2" d="M83,354.59A6.42,6.42,0,1,0,86.38,363,6.42,6.42,0,0,0,83,354.59Z"/>
      <path class="cls-2" d="M247.31,374.38a6.43,6.43,0,1,0-8.4,3.44A6.41,6.41,0,0,0,247.31,374.38Z"/>
      <path class="cls-2" d="M267.54,375.93a6.42,6.42,0,1,0,3.44,8.41A6.41,6.41,0,0,0,267.54,375.93Z"/>
      <path class="cls-2" d="M282.81,389.3a6.42,6.42,0,1,0,8.4-3.42A6.42,6.42,0,0,0,282.81,389.3Z"/>
      <path class="cls-2" d="M80.73,277.08a6.42,6.42,0,1,0-8.41,3.42A6.41,6.41,0,0,0,80.73,277.08Z"/>
      <path class="cls-2" d="M104.39,287A6.42,6.42,0,1,0,96,290.46,6.43,6.43,0,0,0,104.39,287Z"/>
      <path class="cls-2" d="M279,332a6.43,6.43,0,1,0,8.41-3.43A6.42,6.42,0,0,0,279,332Z"/>
      <path class="cls-2" d="M302.7,342a6.42,6.42,0,1,0,8.41-3.42A6.43,6.43,0,0,0,302.7,342Z"/>
      <path class="cls-2" d="M100.63,229.75a6.42,6.42,0,1,0-8.41,3.44A6.41,6.41,0,0,0,100.63,229.75Z"/>
      <path class="cls-2" d="M124.29,239.71a6.42,6.42,0,1,0-8.4,3.42A6.41,6.41,0,0,0,124.29,239.71Z"/>
      <path class="cls-2" d="M269.09,355.69a6.42,6.42,0,1,0-8.4,3.45A6.41,6.41,0,0,0,269.09,355.69Z"/>
      <path class="cls-2" d="M280.92,360.67a6.42,6.42,0,1,0,8.41-3.44A6.43,6.43,0,0,0,280.92,360.67Z"/>
      <path class="cls-2" d="M78.84,248.43a6.41,6.41,0,1,0-8.39,3.44A6.4,6.4,0,0,0,78.84,248.43Z"/>
      <path class="cls-2" d="M102.5,258.39a6.41,6.41,0,1,0-8.39,3.43A6.4,6.4,0,0,0,102.5,258.39Z"/>
      <path class="cls-2" d="M122.75,259.93a6.42,6.42,0,1,0,3.44,8.41A6.42,6.42,0,0,0,122.75,259.93Z"/>
      <path class="cls-2" d="M60.83,324.41a6.42,6.42,0,1,0-8.39,3.42A6.39,6.39,0,0,0,60.83,324.41Z"/>
      <path class="cls-2" d="M84.5,334.35a6.42,6.42,0,1,0-8.41,3.44A6.39,6.39,0,0,0,84.5,334.35Z"/>
      <path class="cls-2" d="M245.77,394.62a6.42,6.42,0,1,0,3.43,8.4A6.44,6.44,0,0,0,245.77,394.62Z"/>
      <path class="cls-2" d="M59,295.76a6.42,6.42,0,1,0-8.4,3.43A6.4,6.4,0,0,0,59,295.76Z"/>
      <path class="cls-2" d="M82.62,305.71a6.42,6.42,0,1,0-8.41,3.44A6.41,6.41,0,0,0,82.62,305.71Z"/>
      <path class="cls-2" d="M106.28,315.67a6.42,6.42,0,1,0-8.4,3.42A6.42,6.42,0,0,0,106.28,315.67Z"/>
      <path class="cls-2" d="M298.94,284.7a6.41,6.41,0,1,0,8.41-3.43A6.42,6.42,0,0,0,298.94,284.7Z"/>
      <path class="cls-2" d="M322.6,294.66a6.41,6.41,0,1,0,8.41-3.44A6.39,6.39,0,0,0,322.6,294.66Z"/>
      <path class="cls-2" d="M120.51,182.42a6.41,6.41,0,1,0-8.39,3.44A6.43,6.43,0,0,0,120.51,182.42Z"/>
      <path class="cls-2" d="M144.18,192.38a6.41,6.41,0,1,0-8.4,3.42A6.42,6.42,0,0,0,144.18,192.38Z"/>
      <path class="cls-2" d="M280.59,311.79a6.41,6.41,0,1,0-3.44-8.39A6.39,6.39,0,0,0,280.59,311.79Z"/>
      <path class="cls-2" d="M300.82,313.34a6.42,6.42,0,1,0,8.4-3.42A6.42,6.42,0,0,0,300.82,313.34Z"/>
      <path class="cls-2" d="M98.75,201.12a6.42,6.42,0,1,0-8.42,3.42A6.45,6.45,0,0,0,98.75,201.12Z"/>
      <path class="cls-2" d="M122.41,211.06a6.42,6.42,0,1,0-8.41,3.43A6.44,6.44,0,0,0,122.41,211.06Z"/>
      <path class="cls-2" d="M142.64,212.6a6.42,6.42,0,1,0,3.43,8.41A6.42,6.42,0,0,0,142.64,212.6Z"/>
      <path class="cls-2" d="M318.83,237.37a6.42,6.42,0,1,0,8.4-3.43A6.42,6.42,0,0,0,318.83,237.37Z"/>
      <path class="cls-2" d="M342.49,247.33a6.41,6.41,0,1,0,8.41-3.43A6.4,6.4,0,0,0,342.49,247.33Z"/>
      <path class="cls-2" d="M140.43,135.1a6.42,6.42,0,1,0-8.42,3.43A6.43,6.43,0,0,0,140.43,135.1Z"/>
      <path class="cls-2" d="M164.08,145.05a6.42,6.42,0,1,0-8.4,3.42A6.42,6.42,0,0,0,164.08,145.05Z"/>
      <path class="cls-2" d="M104.74,335.9a6.42,6.42,0,1,0,3.42,8.41A6.42,6.42,0,0,0,104.74,335.9Z"/>
      <path class="cls-2" d="M300.48,264.48a6.43,6.43,0,1,0-3.43-8.43A6.43,6.43,0,0,0,300.48,264.48Z"/>
      <path class="cls-2" d="M320.72,266a6.42,6.42,0,1,0,8.4-3.42A6.39,6.39,0,0,0,320.72,266Z"/>
      <path class="cls-2" d="M110.24,157.21a6.42,6.42,0,1,0-3.43-8.4A6.41,6.41,0,0,0,110.24,157.21Z"/>
      <path class="cls-2" d="M142.31,163.73a6.42,6.42,0,1,0-8.41,3.43A6.43,6.43,0,0,0,142.31,163.73Z"/>
      <path class="cls-2" d="M162.55,165.29a6.41,6.41,0,1,0,3.42,8.39A6.42,6.42,0,0,0,162.55,165.29Z"/>
      <path class="cls-2" d="M320.38,217.14a6.42,6.42,0,1,0-3.44-8.4A6.4,6.4,0,0,0,320.38,217.14Z"/>
      <path class="cls-2" d="M340.62,218.68a6.41,6.41,0,1,0,8.39-3.42A6.44,6.44,0,0,0,340.62,218.68Z"/>
      <path class="cls-2" d="M338.73,190a6.42,6.42,0,1,0,8.41-3.43A6.42,6.42,0,0,0,338.73,190Z"/>
      <path class="cls-2" d="M362.4,200a6.42,6.42,0,1,0,8.4-3.42A6.41,6.41,0,0,0,362.4,200Z"/>
      <path class="cls-2" d="M339.75,171a6.42,6.42,0,1,0-3.42-8.38A6.4,6.4,0,0,0,339.75,171Z"/>
      <path class="cls-2" d="M363.43,181a6.42,6.42,0,1,0-3.42-8.41A6.45,6.45,0,0,0,363.43,181Z"/>
      <path class="cls-2" d="M388.84,191.57a6.42,6.42,0,1,0-3.43-8.4A6.44,6.44,0,0,0,388.84,191.57Z"/>
      <path class="cls-2" d="M138.79,87a6.41,6.41,0,1,0-3.43-8.39A6.42,6.42,0,0,0,138.79,87Z"/>
      <path class="cls-2" d="M162.47,96.9A6.42,6.42,0,1,0,159,88.49,6.45,6.45,0,0,0,162.47,96.9Z"/>
      <path class="cls-2" d="M186.15,106.81a6.42,6.42,0,1,0-3.43-8.41A6.44,6.44,0,0,0,186.15,106.81Z"/>
      <path class="cls-2" d="M489.25,192.19C468.57,151.3,423,104.3,331.11,109.3c-59.84,3.24-199.18-67.79-199.18-67.79a10.7,10.7,0,0,0-14,5.7L102.4,84.06,88.29,78.13c-20.35-7.87-63.79-10.86-82.62,34S19.38,185.86,39.51,195l13.69,5.76-50,118.66a40.2,40.2,0,0,0,21.49,52.65l228.54,96.08a40.16,40.16,0,0,0,52.65-21.46l92.49-219a8.93,8.93,0,0,1,16.45,6.95s-13.71,32.49-13.72,48.72a55.51,55.51,0,0,0,55.41,55.45h0A55.64,55.64,0,0,0,512,283.36C512,261.47,503.64,220.65,489.25,192.19ZM48.08,175.43c-1.57-.72-38.29-18-22.69-55.05C40.58,84.25,76.58,96.58,80.3,98l13.79,5.8-32.58,77.3ZM385.38,208a10.67,10.67,0,0,0-4.14,4.89L286.14,438.4a19.15,19.15,0,0,1-24.64,10.05L33,352.37a18.8,18.8,0,0,1-10-24.62L76.7,200.12c.15-.3.38-.53.51-.84a6.26,6.26,0,0,0,.14-.73l36.46-86.49,148,62.22a10.7,10.7,0,1,0,8.29-19.72l-148-62.21,11.37-27L420.32,185.94Z"/>
    </g>
  </g>
</svg>
