<svg id="Layer_1" data-name="Layer 1" xmlns="http://www.w3.org/2000/svg" viewBox="0 0 512 512">
  <defs>
    <style>
      .cls-1 {
        fill: #fff;
      }

      .cls-2 {
        fill: #030304;
      }
    </style>
  </defs>
  <title>phone</title>
  <g>
    <path class="cls-1" d="M43.34,369.1A26.08,26.08,0,0,1,35.85,333L239.17,23.38a26.09,26.09,0,0,1,36.14-7.48l193.38,127A26.09,26.09,0,0,1,476.17,179L272.86,488.62a26.09,26.09,0,0,1-36.14,7.48Z"/>
    <g>
      <path class="cls-2" d="M474.49,134.07,281.1,7.08a36.61,36.61,0,0,0-50.75,10.51L27,327.18a36.65,36.65,0,0,0,10.51,50.74l193.39,127a36.61,36.61,0,0,0,50.75-10.51L485,184.81A36.69,36.69,0,0,0,474.49,134.07Zm-7.14,39.16L264,482.82a15.88,15.88,0,0,1-21.52,4.46l-193.39-127a15.53,15.53,0,0,1-4.46-21.51L248,29.17a15.52,15.52,0,0,1,21.52-4.45l193.39,127A15.55,15.55,0,0,1,467.35,173.23Z"/>
      <polygon class="cls-2" points="94.88 320.22 261.09 429.36 431.37 170.09 265.19 60.94 94.88 320.22"/>
      <path class="cls-2" d="M170.79,385.76a15,15,0,1,0,4.32,20.82A15,15,0,0,0,170.79,385.76Z"/>
    </g>
  </g>
</svg>
