<svg id="Layer_1" data-name="Layer 1" xmlns="http://www.w3.org/2000/svg" viewBox="0 0 512 512">
  <defs>
    <style>
      .cls-1 {
        fill: #fff;
      }

      .cls-2 {
        fill: #1a1a18;
      }
    </style>
  </defs>
  <title>powerplug</title>
  <g>
    <path class="cls-1" d="M396.84,140.32h-20.5V40.9c0-14.07-13.45-25.46-30-25.46s-30,11.39-30,25.46v99.42H196V40.9c0-14.07-13.42-25.46-30-25.46S136,26.83,136,40.9v99.42H115.16V275h.16c-.1,2.06-.16,4.13-.16,6.2a140.79,140.79,0,0,0,90,131.25v84.15H306.48v-84a140.76,140.76,0,0,0,90.36-131.36c0-2.07-.06-4.14-.15-6.2h.15Z"/>
    <g>
      <circle class="cls-2" cx="142.18" cy="266.9" r="7.88"/>
      <circle class="cls-2" cx="173.68" cy="266.9" r="7.88"/>
      <circle class="cls-2" cx="205.19" cy="266.9" r="7.88"/>
      <circle class="cls-2" cx="157.93" cy="298.41" r="7.88"/>
      <circle class="cls-2" cx="189.44" cy="298.41" r="7.88"/>
      <circle class="cls-2" cx="142.18" cy="203.89" r="7.88"/>
      <circle class="cls-2" cx="173.68" cy="203.89" r="7.88"/>
      <circle class="cls-2" cx="205.19" cy="203.89" r="7.88"/>
      <circle class="cls-2" cx="236.7" cy="203.89" r="7.88"/>
      <circle class="cls-2" cx="157.93" cy="235.4" r="7.88"/>
      <circle class="cls-2" cx="189.44" cy="235.4" r="7.88"/>
      <circle class="cls-2" cx="220.94" cy="235.4" r="7.88"/>
      <circle class="cls-2" cx="268.21" cy="203.89" r="7.88"/>
      <circle class="cls-2" cx="220.94" cy="172.38" r="7.88"/>
      <circle class="cls-2" cx="252.45" cy="172.38" r="7.88"/>
      <circle class="cls-2" cx="157.93" cy="172.38" r="7.88"/>
      <circle class="cls-2" cx="189.44" cy="172.38" r="7.88"/>
      <path class="cls-2" d="M410,140.32a13.13,13.13,0,0,0-13.12-13.13h-7.38V40.9c0-21.27-19.35-38.59-43.13-38.59S303.21,19.63,303.21,40.9v86.29H209.15V40.9c0-21.27-19.34-38.59-43.12-38.59S122.91,19.63,122.91,40.9v86.29h-7.75A13.13,13.13,0,0,0,102,140.32V275a14.26,14.26,0,0,0,.08,1.49c-.05,1.57-.08,3.14-.08,4.71,0,62.08,37,115.55,90,139.89v75.51a13.14,13.14,0,0,0,13.13,13.13H306.48a13.14,13.14,0,0,0,13.13-13.13V421.21c53.21-24.27,90.35-77.85,90.35-140,0-1.57,0-3.15-.08-4.72A14.21,14.21,0,0,0,410,275ZM329.47,40.9c0-6.69,7.72-12.33,16.86-12.33s16.88,5.64,16.88,12.33v86.29H329.47Zm-180.31,0c0-6.69,7.73-12.33,16.87-12.33s16.86,5.64,16.86,12.33v86.29H149.16ZM293.35,483.43h-75V430.27a148.67,148.67,0,0,0,75,.08ZM383.71,273a13.39,13.39,0,0,0-.13,2.46c.07,1.87.13,3.77.13,5.66a127.71,127.71,0,0,1-255.42,0c0-1.87.06-3.74.14-5.6a12.46,12.46,0,0,0-.14-2.52V153.45H383.71Z"/>
    </g>
  </g>
</svg>
