<svg id="Layer_1" data-name="Layer 1" xmlns="http://www.w3.org/2000/svg" viewBox="0 0 512 512">
  <defs>
    <style>
      .cls-1 {
        fill: #fff;
      }

      .cls-2 {
        fill: #1a1a18;
      }
    </style>
  </defs>
  <title>tape</title>
  <g>
    <path class="cls-1" d="M488.29,335.84l6.47-60.5S416,301.76,363,309c-.56.08-1.14.14-1.69.21A75.35,75.35,0,0,0,362.84,290c-.86-15.11-4.18-79.3-5-95.87-.13-2.49-.2-3.91-.2-3.91l-.66.05c-6.6-60.53-85.57-104.87-179.41-99.6C81.65,96.08,6.78,151.15,10.3,213.69c.08,1.5.37,2.91.53,4.38.73,14,3.79,72.72,4.85,91.46,3.5,62.54,76.3,104.11,174.41,111.08,42.12,3,109.88,0,179.24-8.7,53.48-6.7,132.49-30.28,132.49-30.28ZM184,199.72c47.2,0,85.48,14.13,85.48,31.56S231.21,262.84,184,262.84s-85.5-14.13-85.5-31.56S136.79,199.72,184,199.72Z"/>
    <g>
      <circle class="cls-2" cx="55.78" cy="315.09" r="6.1"/>
      <circle class="cls-2" cx="80.2" cy="363.93" r="6.1"/>
      <circle class="cls-2" cx="80.2" cy="315.09" r="6.1"/>
      <circle class="cls-2" cx="45.95" cy="339.35" r="6.1"/>
      <circle class="cls-2" cx="67.99" cy="339.51" r="6.1"/>
      <circle class="cls-2" cx="36.45" cy="293.72" r="6.1"/>
      <circle class="cls-2" cx="104.62" cy="363.93" r="6.1"/>
      <circle class="cls-2" cx="129.04" cy="363.93" r="6.1"/>
      <circle class="cls-2" cx="153.46" cy="363.93" r="6.1"/>
      <circle class="cls-2" cx="177.88" cy="363.93" r="6.1"/>
      <circle class="cls-2" cx="202.3" cy="363.93" r="6.1"/>
      <circle class="cls-2" cx="226.71" cy="363.93" r="6.1"/>
      <circle class="cls-2" cx="251.13" cy="363.93" r="6.1"/>
      <circle class="cls-2" cx="141.25" cy="388.35" r="6.1"/>
      <circle class="cls-2" cx="165.67" cy="388.35" r="6.1"/>
      <circle class="cls-2" cx="190.09" cy="388.35" r="6.1"/>
      <circle class="cls-2" cx="214.51" cy="388.35" r="6.1"/>
      <circle class="cls-2" cx="238.92" cy="388.35" r="6.1"/>
      <circle class="cls-2" cx="263.34" cy="388.35" r="6.1"/>
      <circle class="cls-2" cx="275.55" cy="363.93" r="6.1"/>
      <circle class="cls-2" cx="92.41" cy="339.51" r="6.1"/>
      <circle class="cls-2" cx="116.83" cy="339.51" r="6.1"/>
      <circle class="cls-2" cx="141.25" cy="339.51" r="6.1"/>
      <circle class="cls-2" cx="165.67" cy="339.51" r="6.1"/>
      <circle class="cls-2" cx="190.09" cy="339.51" r="6.1"/>
      <circle class="cls-2" cx="214.51" cy="339.51" r="6.1"/>
      <circle class="cls-2" cx="238.92" cy="339.51" r="6.1"/>
      <circle class="cls-2" cx="263.34" cy="339.51" r="6.1"/>
      <circle class="cls-2" cx="299.97" cy="363.93" r="6.1"/>
      <circle class="cls-2" cx="324.39" cy="363.93" r="6.1"/>
      <circle class="cls-2" cx="348.81" cy="363.93" r="6.1"/>
      <circle class="cls-2" cx="373.23" cy="363.93" r="6.1"/>
      <circle class="cls-2" cx="397.65" cy="363.93" r="6.1"/>
      <circle class="cls-2" cx="422.07" cy="363.93" r="6.1"/>
      <circle class="cls-2" cx="446.49" cy="363.93" r="6.1"/>
      <circle class="cls-2" cx="287.76" cy="388.35" r="6.1"/>
      <circle class="cls-2" cx="312.18" cy="388.35" r="6.1"/>
      <circle class="cls-2" cx="336.6" cy="388.35" r="6.1"/>
      <circle class="cls-2" cx="470.91" cy="363.93" r="6.1"/>
      <circle class="cls-2" cx="470.91" cy="315.09" r="6.1"/>
      <circle class="cls-2" cx="287.76" cy="339.51" r="6.1"/>
      <circle class="cls-2" cx="312.18" cy="339.51" r="6.1"/>
      <circle class="cls-2" cx="336.6" cy="339.51" r="6.1"/>
      <circle class="cls-2" cx="361.02" cy="339.51" r="6.1"/>
      <circle class="cls-2" cx="385.44" cy="339.51" r="6.1"/>
      <circle class="cls-2" cx="409.86" cy="339.51" r="6.1"/>
      <circle class="cls-2" cx="434.28" cy="339.51" r="6.1"/>
      <circle class="cls-2" cx="458.7" cy="339.51" r="6.1"/>
      <path class="cls-2" d="M69.74,217.34c.45,1.56.93,3.11,1.53,4.64.42,1,.91,2.05,1.39,3.07.66,1.38,1.38,2.73,2.17,4.07.59,1,1.21,2,1.89,3,.88,1.3,1.86,2.57,2.86,3.83.57.71,1,1.46,1.63,2.17.1.12.25.15.36.26,18.78,21.31,55.06,35.26,98,35.26h0c3.68,0,7.4-.1,11.18-.32,51.88-2.91,93.8-24.83,108.75-53.72l.45-.87c.72-1.45,1.4-2.91,2-4.39.26-.65.45-1.3.68-2a48.48,48.48,0,0,0,1.64-5.73c.31-1.37.58-2.75.76-4.12.1-.77.2-1.54.26-2.3a47.87,47.87,0,0,0,.15-6.56c-2.26-40.28-56.15-70.07-122.87-66.33-30.77,1.72-59.45,10.37-80.78,24.35-23,15.1-35,34.74-33.9,55.3a46.87,46.87,0,0,0,1.1,7.6C69.16,215.54,69.48,216.43,69.74,217.34Zm108.36,2.92c29.86-1.67,58.72,2,84.46,10.18-17.59,12.22-43.81,20.95-73,22.59q-5.09.28-10,.28h0c-29.25,0-55.09-7.23-71.79-18.57A241.86,241.86,0,0,1,178.1,220.26Z"/>
      <path class="cls-2" d="M511.58,378.73,498.63,334.9l6.25-58.48a10.17,10.17,0,0,0-13.35-10.72c-.78.25-67,24.39-118.49,31.4,3.69-.5-3.92.68,0,0,.09-2.53.1-5.08,0-7.64-.83-14.62-4-75.26-4.95-94.11,0,0-.43-3.09-.62-3.79.05.7.15,1.39.19,2.08C363.8,125.43,280.16,74.7,177,80.55c-48.31,2.71-93.18,17.63-126.34,42C16.16,147.9-1.76,180.47.14,214.26q.21,3.75.69,7.37c.94,18,3.7,70.87,4.69,88.46,3.67,65.63,75.83,113,183.84,120.68,10.77.76,23.21,1.14,37,1.14h0c42.08,0,93.31-3.51,144.23-9.9,53.71-6.73,130.88-29.67,134.14-30.64A10.17,10.17,0,0,0,511.58,378.73Zm-158.9-88.12a64.51,64.51,0,0,1-.23,9.44c-24.57,3.12-49.39,5.41-73.17,6.77a197.21,197.21,0,0,0,37.86-21.49c14-10.27,25.18-21.75,33.49-34a.21.21,0,0,1,0,.06C351.48,268.42,352.31,284.09,352.68,290.61ZM21.11,219.72c.14,1,.43,2,.62,3-.39-1.92-.55-3.87-.77-5.82l-.13-2.42a10.39,10.39,0,0,0-.36-2.15c-1.16-26.42,13.76-52.44,42.2-73.35,30-22.07,71-35.6,115.43-38.09q7.34-.41,14.53-.41c83.77,0,151.71,41.43,154.67,94.32,1.5,26.7-13.49,53-42.22,74.16-29.87,22-70.62,35.45-114.8,38-68.74-5.19-116.72-19.61-143.79-42.89-12.72-12-21.43-25.91-24.68-41a71.08,71.08,0,0,0,1.8,7.25A67.33,67.33,0,0,1,21.11,219.72Zm347,182.1c-50.11,6.28-100.44,9.74-141.71,9.74-13.3,0-25.26-.36-35.54-1.1-97.15-6.9-161.91-46.74-165-101.5-.44-7.83-1.24-22.64-2.06-38.24,29,31.57,84.46,50.56,165.7,56.62,46.29,3.44,112.13.28,174.86-8.27,39.91-5.43,93-21.17,118.64-29.24l-4.81,44.93a10.45,10.45,0,0,0,.36,4l10.63,36C466.52,381.1,409.18,396.66,368.06,401.82Z"/>
    </g>
  </g>
</svg>
